<?xml version="1.0" standalone="no"?>
<!DOCTYPE svg PUBLIC "-//W3C//DTD SVG 20010904//EN"
 "http://www.w3.org/TR/2001/REC-SVG-20010904/DTD/svg10.dtd">
<svg version="1.0" xmlns="http://www.w3.org/2000/svg"
 width="40.000000pt" height="40.000000pt" viewBox="0 0 40.000000 40.000000"
 preserveAspectRatio="xMidYMid meet">

<g transform="translate(0.000000,40.000000) scale(0.100000,-0.100000)"
fill="#000000" stroke="none">
<path d="M0 200 l0 -200 200 0 200 0 0 200 0 200 -200 0 -200 0 0 -200z m77
54 c-3 -3 -12 -4 -19 -1 -8 3 -5 6 6 6 11 1 17 -2 13 -5z m183 -3 c0 -6 -4
-13 -10 -16 -15 -10 -12 -23 8 -28 9 -3 2 -5 -16 -6 -32 -1 -32 -1 -16 24 l16
25 -35 0 c-44 0 -54 -14 -25 -34 l22 -16 -22 0 c-24 0 -38 21 -28 45 6 17 106
22 106 6z m40 0 c0 -5 7 -12 16 -15 8 -3 12 -2 9 3 -3 5 -1 12 5 16 6 4 10 -6
10 -24 0 -33 -8 -39 -28 -19 -10 10 -15 10 -22 -2 -7 -11 -10 -7 -10 18 0 17
5 32 10 32 6 0 10 -4 10 -9z m-243 -48 c-3 -10 -5 -4 -5 12 0 17 2 24 5 18 2
-7 2 -21 0 -30z m33 13 c0 -8 -4 -18 -10 -21 -5 -3 -10 3 -10 14 0 12 5 21 10
21 6 0 10 -6 10 -14z"/>
</g>
</svg>
